# xmcd
#
# Track frame offsets:
#	150
#	18455
#	36611
#	53206
#	71376
#	87154
#	103337
#	121966
#	143047
#	162471
#	180731
#	196570
#	214201
#
# Disc length: 3081 seconds
#
# Revision: 1
# Processed by: cddbd v1.5.2PL0 Copyright (c) Steve Scherf et al.
# Submitted via: audiograbber 1.83.01
#
DISCID=ba0c070d
DTITLE=Johannes Oerding - Boxer
DYEAR=2011
DGENRE=Pop
TTITLE0=Tausend Menschen
TTITLE1=Reparier'n
TTITLE2=Morgen
TTITLE3=Sonne
TTITLE4=Erster Klasse
TTITLE5=Zurueck
TTITLE6=Trotzdem
TTITLE7=Boxer
TTITLE8=Halt mich fest
TTITLE9=Ich lass Dich geh'n
TTITLE10=Wenn Du mich brauchst
TTITLE11=Alles was bleibt
TTITLE12=Gelandet
EXTD=
EXTT0=
EXTT1=
EXTT2=
EXTT3=
EXTT4=
EXTT5=
EXTT6=
EXTT7=
EXTT8=
EXTT9=
EXTT10=
EXTT11=
EXTT12=
PLAYORDER=
